<svg xmlns="http://www.w3.org/2000/svg" width="600" height="400" viewBox="0 0 600 400">
  <defs>
    <linearGradient id="classGrad" x1="0%" y1="0%" x2="0%" y2="100%">
      <stop offset="0%" style="stop-color:#f5deb3;stop-opacity:1" />
      <stop offset="100%" style="stop-color:#daa520;stop-opacity:1" />
    </linearGradient>
  </defs>
  <!-- Classroom background -->
  <rect width="600" height="400" fill="url(#classGrad)"/>
  <!-- Whiteboard -->
  <rect x="50" y="30" width="500" height="150" fill="white" stroke="#333" stroke-width="3"/>
  <text x="100" y="70" font-size="32" fill="#333" font-weight="bold">WORKSHOP</text>
  <line x1="100" y1="100" x2="400" y2="100" stroke="#333" stroke-width="2"/>
  <text x="110" y="130" font-size="14" fill="#333">Learning • Growth • Innovation</text>
  <!-- Teacher -->
  <circle cx="480" cy="90" r="15" fill="#ffdbac"/>
  <rect x="470" y="105" width="20" height="35" fill="#1e90ff"/>
  <rect x="465" y="140" width="30" height="25" fill="#333"/>
  <!-- Students -->
  <circle cx="100" cy="250" r="12" fill="#ffdbac"/>
  <rect x="92" y="262" width="16" height="28" fill="#90ee90"/>
  <circle cx="200" cy="240" r="12" fill="#ffdbac"/>
  <rect x="192" y="252" width="16" height="28" fill="#ffd700"/>
  <circle cx="300" cy="250" r="12" fill="#ffdbac"/>
  <rect x="292" y="262" width="16" height="28" fill="#ff69b4"/>
  <circle cx="400" cy="245" r="12" fill="#ffdbac"/>
  <rect x="392" y="257" width="16" height="28" fill="#87ceeb"/>
  <circle cx="500" cy="250" r="12" fill="#ffdbac"/>
  <rect x="492" y="262" width="16" height="28" fill="#90ee90"/>
  <!-- Tables -->
  <line x1="80" y1="300" x2="180" y2="300" stroke="#8b4513" stroke-width="3"/>
  <line x1="180" y1="290" x2="180" y2="310" stroke="#8b4513" stroke-width="2"/>
  <line x1="80" y1="290" x2="80" y2="310" stroke="#8b4513" stroke-width="2"/>
  <line x1="200" y1="295" x2="300" y2="295" stroke="#8b4513" stroke-width="3"/>
  <line x1="300" y1="285" x2="300" y2="305" stroke="#8b4513" stroke-width="2"/>
  <line x1="200" y1="285" x2="200" y2="305" stroke="#8b4513" stroke-width="2"/>
  <line x1="380" y1="300" x2="480" y2="300" stroke="#8b4513" stroke-width="3"/>
  <line x1="480" y1="290" x2="480" y2="310" stroke="#8b4513" stroke-width="2"/>
  <line x1="380" y1="290" x2="380" y2="310" stroke="#8b4513" stroke-width="2"/>
</svg>